<svg xmlns="http://www.w3.org/2000/svg" xmlns:xlink="http://www.w3.org/1999/xlink" width="16" height="44" viewBox="0 0 16 44"><defs><path id="v44na" d="M124 58.58c0 13.508-4.967 22.664-5.178 23.046l-.206.374h-5.232l-.206-.374c-.212-.382-5.178-9.538-5.178-23.045C108 45.21 113.679 38 116 38c2.321 0 8 7.211 8 20.58zm-4.727 18.38c-.142-.59-.822-2.645-3.645-4.285-2.565-1.491-4.252-3.268-5.366-4.932 1.19 6.807 3.35 11.521 4.005 12.837h1.006v-4.967h1.454v4.967h1.006c.29-.581.874-1.826 1.54-3.62zm1.839-6.146c-.014-.045-.8-2.625-5.473-5.23-3.276-1.827-5.12-3.98-6.161-5.865.02.88.056 1.741.117 2.58.127.975 1.034 5.818 6.778 9.155 1.908 1.11 2.988 2.412 3.6 3.47a53.17 53.17 0 0 0 1.139-4.11zm.458-2.13c.574-2.971.975-6.374.975-10.103 0-11.177-3.956-17.075-5.818-18.697V62.13h-1.454V39.884c-1.656 1.443-4.965 5.922-5.68 15.148h.001c-.006 0-.09 5.484 6.767 9.307 2.82 1.573 4.367 3.176 5.21 4.345z"/></defs><g><g transform="translate(-108 -38)"><use fill="#5da8ef" xlink:href="#v44na"/></g></g></svg>