<svg xmlns="http://www.w3.org/2000/svg" xmlns:xlink="http://www.w3.org/1999/xlink" width="19" height="16" viewBox="0 0 19 16"><defs><path id="a6m7a" d="M1387.21 686.813c-.008.457.568.104 1.101.369s1.594.567.734 2.951c0 0-1.203 3.594-2.201 3.32 0 0-1.55.063-1.834-3.32-.285-3.383-.863-6.817-2.568-6.641-1.704.176-4.178 1.842-5.857 4.058 0 0 .463 1.158 1.089 1.107.625-.05.586-.96 1.1-.738.514.224 1.31.187 1.834 3.32.525 3.135 1.307 4.784 2.201 6.273.894 1.49 1.802 1.49 2.568 1.49.765 0 3.22-1.778 5.502-4.81 2.282-3.033 4.044-6.688 4.044-7.38 0-.691.646-3.24-1.843-3.689-2.49-.45-5.836 2.065-5.87 3.69z"/></defs><g><g transform="translate(-1376 -683)"><use fill="#ebebeb" xlink:href="#a6m7a"/></g></g></svg>