<svg xmlns="http://www.w3.org/2000/svg" xmlns:xlink="http://www.w3.org/1999/xlink" width="19" height="15" viewBox="0 0 19 15"><defs><path id="7mlua" d="M1392.511 635.524l1.847-.369s-1.547 1.75-1.847 1.845c-.003.001-.006-.002-.009-.002-.04.853.01 1.109.01 1.109-3.53 15.21-16.52 8.486-16.52 8.486 4.727.125 5.148-1.845 5.148-1.845-2.768-.42-3.301-2.213-3.301-2.213.94.43 1.467-.37 1.467-.37-2.987-.776-2.568-3.69-2.568-3.69.5.46 1.315.634 1.8.7-.337-.394-3.125-3.756-1.433-5.495 0 0 2.036 3.682 7.428 4.035l.36-.09a3.91 3.91 0 0 1-.085-.81c0-2.139 1.725-3.874 3.852-3.874 2.564 0 3.118 1.476 3.118 1.476l1.834-1.107s-.201 1.85-1.1 2.214z"/></defs><g><g transform="translate(-1376 -633)"><use fill="#ebebeb" xlink:href="#7mlua"/></g></g></svg>